<svg version="1.1" xmlns="http://www.w3.org/2000/svg" xmlns:xlink="http://www.w3.org/1999/xlink" width="1587" height="410"><defs/><g><g><path fill="none" stroke="rgb(255,255,255)" paint-order="fill stroke markers" d=" M 181.75 3 L 181.75 407" stroke-opacity="0.9" stroke-miterlimit="10" stroke-width="1.5" stroke-dasharray=""/><g><path fill="rgb(255,255,255)" stroke="rgb(255,255,255)" paint-order="stroke fill markers" d=" M 181.75 408.5 L 178.64417145876976 396.9088900845312 L 184.85582854123024 396.9088900845312 L 181.75 408.5 L 178.64417145876976 396.9088900845312" stroke-opacity="0.9" stroke-linejoin="round" stroke-miterlimit="10" stroke-width="1.5" stroke-dasharray="" fill-opacity="0.9"/></g><g><path fill="rgb(255,255,255)" stroke="rgb(255,255,255)" paint-order="stroke fill markers" d=" M 181.75 1.5 L 184.85582854123024 13.09110991546882 L 178.64417145876976 13.09110991546882 L 181.75 1.5 L 184.85582854123024 13.09110991546882" stroke-opacity="0.9" stroke-linejoin="round" stroke-miterlimit="10" stroke-width="1.5" stroke-dasharray="" fill-opacity="0.9"/></g></g><g><path fill="none" stroke="rgb(255,255,255)" paint-order="fill stroke markers" d=" M 3 211.75 L 1584 211.75" stroke-opacity="0.9" stroke-miterlimit="10" stroke-width="1.5" stroke-dasharray=""/><g><path fill="rgb(255,255,255)" stroke="rgb(255,255,255)" paint-order="stroke fill markers" d=" M 1.5 211.75 L 13.09110991546882 208.64417145876976 L 13.09110991546882 214.85582854123024 L 1.5 211.75 L 13.09110991546882 208.64417145876976" stroke-opacity="0.9" stroke-linejoin="round" stroke-miterlimit="10" stroke-width="1.5" stroke-dasharray="" fill-opacity="0.9"/></g><g><path fill="rgb(255,255,255)" stroke="rgb(255,255,255)" paint-order="stroke fill markers" d=" M 1585.5 211.75 L 1573.908890084531 214.85582854123027 L 1573.908890084531 208.64417145876976 L 1585.5 211.75 L 1573.908890084531 214.85582854123027" stroke-opacity="0.9" stroke-linejoin="round" stroke-miterlimit="10" stroke-width="1.5" stroke-dasharray="" fill-opacity="0.9"/></g></g><g><g><path fill="none" stroke="rgb(255,255,255)" paint-order="fill stroke markers" d="" stroke-opacity="0.9" stroke-miterlimit="2" stroke-width="1.5" stroke-dasharray=""/></g></g><path fill="#c74440" stroke="none" paint-order="stroke fill markers" d="" fill-opacity="0.4"/><g><path fill="none" stroke="#c74440" paint-order="fill stroke markers" d=" M 36.39564806018225 192.61248879152004 L 36.39564806018225 192.61248879152004 L 60.862772044653525 190.8500556097535 L 82.60577292973016 188.78938477533018 L 102.59933696198452 186.39586972839277 L 121.5932227926262 183.61584504641309 L 140.33718907286467 180.3566088080203 L 160.08083355471584 176.3940909368017 L 186.57230589745288 170.49268220411466 L 211.06442183696447 165.18764915018252 L 223.81031890752664 162.94421724499006 L 234.057020474057 161.64646794758474 L 242.8042047381683 161.0385423417606 L 250.55171080066685 160.98433537548587 L 257.7993777623591 161.42045066557327 L 264.7971251736481 162.3466292622848 L 271.54495303453393 163.75230564024835 L 278.2927808954198 165.68767372835575 L 285.29052830670884 168.26008130545338 L 292.538195268401 171.50444346994632 L 300.78554043170595 175.81896031654483 L 312.2818397502522 182.55253333063638 L 326.02741502242714 190.49491307713805 L 332.77524288331296 193.7173657479266 L 338.02355344177977 195.64081091884958 L 342.522105349037 196.75674326328806 L 346.77073770589107 197.2734288484653 L 350.5195309619387 197.2419125262072 L 354.26832421798633 196.71571573128404 L 358.0171174740341 195.67110532828363 L 362.01583028048503 193.97627181878852 L 366.264462637339 191.5340586484925 L 371.0129340949994 188.08540045653595 L 376.7610837542726 183.08266152170643 L 396.7546477865269 164.82142514658761 L 400.50344104257465 162.6501792057447 L 403.5024756474128 161.50748564216764 L 406.2515907018478 160.99570287043377 L 408.75078620587954 161.0157890203722 L 411.24998170991137 161.52302277426455 L 413.74917721394314 162.52863497104522 L 416.4982922683781 164.2059998825337 L 419.74724642361946 166.92141916748932 L 423.74595923007035 171.21776436800997 L 428.7443502381339 177.64876624822207 L 438.74113225426106 190.77297244706736 L 442.2400059599056 194.22725635855733 L 444.98912101434064 196.13192069300152 L 447.23839696796927 197.04668052798255 L 449.2564084370366 197.31845532907207 L 451.2371097744201 197.0493349772858 L 453.2364661776455 196.22512955992656 L 455.48574213127415 194.6390210967376 L 458.2348571857091 191.80374734982396 L 461.2338917905473 187.7311374444974 L 465.23260459699816 181.16984381202747 L 473.47994976030304 167.33701208606263 L 476.2290648147381 163.93949951603872 L 478.7282603187698 161.8683173716642 L 480.4776971715921 161.10810897394686 L 481.97721447401125 160.95261584083005 L 483.47673177643026 161.27509567398937 L 485.22616862925247 162.26294678482606 L 487.2255250324779 164.17986543234122 L 489.47480098610663 167.2632583836432 L 492.22391604054155 172.13366935156319 L 496.4725483973956 181.04358077139815 L 500.97110030465285 190.1557141175015 L 503.47029580868457 194.0496196949985 L 505.46965221191 196.17473321865728 L 507.2190890647323 197.15825691504995 L 508.4686868167481 197.31100813759198 L 509.71828456876415 196.98614866913942 L 511.21780187118316 195.96164947638928 L 512.9672387240055 193.9182850710421 L 514.9665951272308 190.56656273179541 L 517.4657906312626 185.16110355503443 L 526.212974895374 164.81279492098702 L 527.9624117481961 162.42616235494654 L 529.7118486010186 161.13700299386744 L 530.9614463530344 160.96270637965114 L 531.9611245546471 161.29101285617523 L 533.210722306663 162.28763226529526 L 534.710239609082 164.31357308181077 L 536.4596764619043 167.7121628332824 L 538.708952415533 173.3701409281059 L 546.2065389276282 193.45244443453078 L 547.9559757804506 196.09964429486374 L 549.4554930828697 197.20526701576895 L 550.4551712844824 197.284755297352 L 551.4548494860951 196.8203252857986 L 552.704447238111 195.4809263173593 L 554.20396454053 192.82298729095285 L 555.9534013933524 188.47613789306138 L 558.7025164477874 179.86883969418867 L 562.7012292542382 167.38199556450792 L 564.4506661070604 163.50374757708386 L 565.9501834094795 161.50861876762872 L 566.9498616110923 160.9744360165972 L 567.6996202623018 161.0185747135833 L 568.6992984639145 161.67991009176092 L 569.9488962159305 163.45424893777317 L 571.4484135183495 166.85709081889655 L 573.447769921575 173.09821867516334 L 579.4458391312513 193.41967714628294 L 580.9453564336703 196.22493447774926 L 582.1949541856862 197.2594717264251 L 582.9447128368957 197.2583317408645 L 583.6944714881053 196.77945645538438 L 584.694149689718 195.40895259276374 L 585.9437474417339 192.59480067533468 L 587.6931842945562 186.95245235839496 L 591.1920580002006 172.93740303713412 L 593.191414403426 165.97466711026712 L 594.6909317058452 162.46643387811426 L 595.6906099074579 161.22800330790733 L 596.4353008639972 160.94568946660442 L 597.190127209877 161.2387162701386 L 598.1898054114897 162.5207939209301 L 599.4394031635056 165.47098713386958 L 600.9389204659246 170.66383645533625 L 603.6880355203596 182.66593751292427 L 605.9373114739882 191.68061391752337 L 607.4368287764073 195.6845034159155 L 608.4365069780201 197.05580844811539 L 609.0946786344562 197.31845532907207 L 609.9360242804391 196.88550630421747 L 610.9357024820519 195.26271106817282 L 612.1853002340678 191.67949539714562 L 613.93473708689 184.4293934839654 L 618.1833694437441 165.35741906054344 L 619.43296719576 162.14570495613884 L 620.4326453973727 161.01327029326416 L 620.9324844981791 160.97221656506233 L 621.6822431493886 161.58198285493623 L 622.6819213510013 163.61557310423854 L 623.9315191030172 167.90914801075124 L 625.6809559558394 176.2336606171826 L 628.9299101110807 192.10286518912176 L 630.1795078630968 195.8540968424462 L 631.1791860647094 197.22098460675457 L 631.4291056151126 197.31125465985355" stroke-linecap="round" stroke-linejoin="round" stroke-miterlimit="10" stroke-width="2.5" stroke-opacity="0.8999999761581421" stroke-dasharray=""/></g><path fill="#c74440" stroke="none" paint-order="stroke fill markers" d="" fill-opacity="0.4"/><g><path fill="none" stroke="#c74440" paint-order="fill stroke markers" d=" M 631.4540955369821 196.72191712418055 L 631.4540955369821 196.72191712418055 L 632.3882777968482 197.31845532907207 L 632.9285009272849 197.11823345181156 L 633.678198583371 196.18675027829877 L 634.6777954581524 193.8329609599272 L 635.9272915516293 189.36800782760002 L 638.1763845198876 178.75866852937912 L 640.6753767068413 167.31093145556267 L 642.1747720190135 162.7639745263309 L 643.1743688937951 161.22715026159855 L 643.8151191992752 160.94568946660442 L 644.4238649872718 161.19979940646257 L 645.4234618620534 162.69486324481917 L 646.423058736835 165.42357179974138 L 647.9224540490071 171.3600699132278 L 653.17033764161 194.4475880796631 L 654.1699345163913 196.5342527542958 L 655.2419606017022 197.31845532907207 L 655.919229047259 197.00409320838216 L 656.9188259220405 195.41976453513576 L 657.918422796822 192.6130126899763 L 659.4178181089942 186.59296256481625 L 664.4158024829015 164.3244339993685 L 665.6652985763784 161.63346205864931 L 666.6688020041291 160.94568946660442 L 667.4145931072461 161.32664650301354 L 668.4141899820276 162.99967773691958 L 669.6636860755044 166.7700359381801 L 671.412980606372 174.3430125093569 L 675.4113681054979 192.58676036358534 L 676.6608641989748 195.92178130558514 L 677.6604610737562 197.18844194686267 L 678.4101587298424 197.2505073288616 L 679.1598563859285 196.54556052971864 L 680.1594532607099 194.4686190479497 L 681.4089493541869 190.2805233844076 L 683.4081431037498 181.1326206637142 L 686.4069337280943 167.21927413748625 L 687.6564298215711 163.28703667614363 L 688.6560266963526 161.45926474932756 L 689.5224848089831 160.94568946660442 L 690.1554220085249 161.2203452482032 L 691.1550188833063 162.74698559924482 L 692.1546157580877 165.50335878214273 L 693.65401107026 171.46959645718965 L 698.9018946628628 194.51247566753108 L 699.9014915376443 196.56900375631446 L 700.9493262114102 197.31845532907207 L 701.6507860685119 196.98130555342084 L 702.6503829432935 195.36559526634366 L 703.8998790367704 191.65576084962342 L 705.6491735676378 184.134604215996 L 709.6475610667638 165.82751093763844 L 710.8970571602407 162.42879412192815 L 711.8966540350222 161.10350015279718 L 712.6463516911082 160.9958409148292 L 713.3960493471944 161.65594724383413 L 714.3956462219759 163.6775395991298 L 715.6451423154527 167.8093288536841 L 717.3944368463203 175.6774358967856 L 720.8930259080555 191.80206691052362 L 722.1425220015324 195.4560298658435 L 723.1421188763138 197.0190723814152 L 723.8030090162642 197.31845532907207 L 724.3916149697907 197.08084516572464 L 725.1413126258768 196.10123877199905 L 726.1409095006584 193.6892478557105 L 727.3904055941352 189.16714940573215 L 729.6394985623936 178.51684557799416 L 732.1384907493473 167.1281437846294 L 733.387986842824 163.22801882967292 L 734.3875837176056 161.43111365735518 L 735.2298504186912 160.94568946660442 L 735.8869790297778 161.24168341908563 L 736.8865759045593 162.79983275154498 L 737.8861727793408 165.58374863365248 L 739.385568091513 171.57946195244045 L 744.3835524654205 193.88102193917356 L 745.6330485588973 196.60298343188614 L 746.6566918211182 197.31845532907207 L 747.3823430897648 196.95772833375315 L 748.3819399645463 195.31070790414086 L 749.6314360580233 191.56777697617102 L 751.3807305888907 184.01820339327958 L 755.3791180880168 165.745340998958 L 756.6286141814936 162.38132082820022 L 757.6282110562752 161.0879990211747 L 758.3779087123612 161.0052186469069 L 759.1276063684473 161.68980684976358 L 760.1272032432288 163.74164078695722 L 761.3766993367057 167.90423287487494 L 763.3758930862687 177.03146725087836 L 766.374683710613 190.9686006708583 L 767.8740790227853 195.50898950795772 L 768.8736758975668 197.04053366785362 L 769.5103746259722 197.31845532907207 L 770.1231719910437 197.06095964862746 L 771.122768865825 195.5606027281081 L 772.1223657406066 192.82725245365543 L 773.6217610527789 186.88575521584085 L 778.8696446453816 163.8056420349498 L 779.8692415201631 161.7240182361727 L 780.9372160283991 160.94568946660442 L 781.6185360510307 161.26381297521124 L 782.6181329258121 162.8534023640142 L 783.6177298005937 165.66473779820674 L 785.1171251127658 171.68966153905416 L 790.1151094866734 193.95146257570653 L 791.3646055801502 196.6361902779126 L 792.1143032362364 197.2755986397619 L 792.8640008923225 197.14693262380752 L 793.6136985484085 196.255639080283 L 794.61329542319 193.95062188886257 L 795.8627915166669 189.53384644651777 L 797.8619852662299 180.208906512127 L 800.6108766718789 167.46470273751612 L 802.1102719840512 162.85275580959862 L 803.1098688588327 161.26354296451248 L 803.7908988332531 160.94568946660442 L 804.3593649523095 161.16735014492164 L 805.1090626083956 162.12694533735885 L 806.1086594831771 164.51476051742512 L 807.358155576654 169.01316829158026 L 809.6072485449123 179.64664876503474 L 812.106240731866 191.06017001483983 L 813.3557368253429 194.98704136237427 L 814.3553337001243 196.80964932543182 L 815.2177402356803 197.31845532907207 L 815.8547290122966 197.04028104330766 L 816.8543258870781 195.50835882294038 L 817.8539227618596 192.74736425597084 L 819.3533180740318 186.77617156614895 L 824.6012016666347 163.74086819371232 L 825.6007985414161 161.68939630964763 L 826.6445816381072 160.94568946660442 L 827.3500930722837 161.2867329376746 L 828.3496899470651 162.90769206698897 L 829.5991860405421 166.6230809671366 L 831.3484805714096 174.14902009934298 L 835.3468680705355 192.45043680601162 L 836.5963641640125 195.84335306802262 L 837.5959610387939 197.1632963888385 L 838.34565869488 197.2667892174114 L 839.0953563509662 196.60258059963274 L 840.0949532257476 194.57591711419775 L 841.3444493192245 190.43895622282784 L 843.093743850092 182.56681772289815 L 846.5923329118273 166.44755300307344 L 847.841829005304 162.79919484525163 L 848.8414258800856 161.2414228911449 L 849.4982644429612 160.94568946660442 L 850.0909219735623 161.18657472770525 L 850.8406196296486 162.1702032120754 L 851.84021650443 164.58704870629018 L 853.0897125979069 169.11389633656972 L 855.3388055661652 179.76754512230696 L 857.837797753119 191.15121171683182 L 859.0872938465958 195.04594156461457 L 860.0868907213772 196.83766936549267 L 860.9251058453881 197.31845532907207 L 861.5862860335495 197.0188102644876 L 862.5858829083311 195.455390509185 L 863.5854797831124 192.66687378289288 L 865.0848750952848 186.66624977806958 L 870.0828594691922 164.371279891535 L 871.332355562669 161.6555459636892 L 872.3519472478151 160.94568946660442 L 873.0816500935366 161.3104422926059 L 874.081246968318 162.96269945895256 L 875.3307430617949 166.7111572426633 L 877.0800375926625 174.2654574802519 L 881.0784250917885 192.53250782160882 L 882.3279211852653 195.89070240909925 L 883.3275180600468 197.17866388755073 L 884.0772157161329 197.25727716241596 L 884.826913372219 196.56859166710328 L 885.8265102470006 194.51170170765644 L 887.0760063404775 190.34396872676967 L 889.0752000900404 181.21255394678218 L 892.0739907143849 167.28017148062622 L 893.573386026557 162.74635636929162 L 894.5729829013385 161.2200942145451 L 895.2056300526691 160.94568946660442 L 895.8224789948154 161.20659313347716 L 896.8220758695969 162.71224127454397 L 897.8216727443784 165.450229877035 L 899.3210680565506 171.3967188670751 L 904.5689516491534 194.46939842503073 L 905.5685485239349 196.54597876511036 L 906.6324714550962 197.31845532907207 L 907.3178430548024 196.99654826193213 L 908.317439929584 195.4017001299066 L 909.3170368043654 192.58578459493512" stroke-linecap="round" stroke-linejoin="round" stroke-miterlimit="10" stroke-width="2.5" stroke-opacity="0.8999999761581421" stroke-dasharray=""/></g><path fill="#c74440" stroke="none" paint-order="stroke fill markers" d="" fill-opacity="0.4"/><g><path fill="none" stroke="#c74440" paint-order="fill stroke markers" d=" M 909.3170368043654 193.26825927483713 L 909.3170368043654 193.26825927483713 L 910.8169446749827 188.35944987351365 L 913.5667757711144 176.97853350901462 L 916.0666222221429 167.36283904757803 L 917.5665300927602 163.33891985655038 L 918.8164533182745 161.42612190636396 L 919.819385536291 160.94568946660442 L 920.5663458339945 161.21077041033845 L 921.566284414406 162.3739350516526 L 922.8162076399204 165.02112630063118 L 924.3161155105377 169.63152719929388 L 927.0659466066693 180.32220868540986 L 929.8157777028008 190.47863970208846 L 931.3156855734179 194.46114268918944 L 932.5656087989324 196.52956715222106 L 933.5655473793439 197.26234647746801 L 934.3155013146526 197.25488527917747 L 935.0654552499611 196.773801871251 L 936.3153784754754 194.97032881352175 L 937.8152863460926 191.3498764254409 L 939.8151635069156 184.7234002637717 L 945.0648410540759 166.2789922740907 L 946.5647489246932 162.9719865657692 L 947.8146721502075 161.38461363443594 L 948.8927811943369 160.94568946660442 L 949.5645646659276 161.11536233864507 L 950.5645032463391 161.98388519208422 L 951.8144264718535 164.03982851077856 L 953.3143343424707 167.7305743618337 L 955.5641961483965 175.00389810957154 L 960.313904405351 190.92212743809608 L 962.0637969210711 194.86443475367804 L 963.3137201465854 196.58944293234455 L 964.5636433720998 197.3009900284618 L 965.5635819525113 197.12080889132608 L 966.5635205329228 196.2880762281576 L 967.8134437584372 194.38853308428924 L 969.3133516290544 191.01343016272455 L 971.5632134349802 184.33245687035492 L 977.0628756272433 167.05087962444728 L 978.8127681429633 163.39628412649333 L 980.3126760135807 161.52591309929215 L 981.562599239095 160.95275522492142 L 982.5625378195065 161.15454576422937 L 983.562476399918 161.9306002317499 L 985.0623842705352 164.09917083281456 L 986.8122767862552 167.93532048797783 L 989.312123237284 175.09107508174887 L 994.5618007844442 190.64207559760968 L 996.5616779452672 194.69685241993866 L 998.0615858158844 196.5653584568306 L 999.3115090413987 197.263894796054 L 1000.3114476218102 197.24339397287565 L 1001.3113862022217 196.71349188460644 L 1002.5613094277361 195.3668307340517 L 1004.0612172983532 192.8412874348825 L 1006.0610944591762 188.22131068902007 L 1009.3108948455135 178.97259034867392 L 1013.0606645220566 168.635570238282 L 1015.0605416828796 164.4942329203162 L 1016.8104341985998 162.0920492924095 L 1018.310342069217 161.07579792352234 L 1019.3102806496285 160.95868348630776 L 1020.3102192300399 161.28949863393015 L 1021.5601424555543 162.31258721539447 L 1023.3100349712744 164.79150126332277 L 1025.3099121320972 168.87322899077026 L 1028.0597432282289 175.91591757963835 L 1033.309420775389 189.6420771098497 L 1035.559282581315 193.94769323525605 L 1037.309175097035 196.15840934167377 L 1038.8090829676523 197.14599631307416 L 1040.0590061931666 197.2994465289697 L 1041.308929418681 196.8456893589741 L 1042.8088372892983 195.53273243039493 L 1044.5587298050184 193.03918661599738 L 1046.8085916109442 188.5907941250071 L 1050.0583919972814 180.6533750569318 L 1054.808100254236 169.09786264418582 L 1057.0579620601618 164.91587887263253 L 1059.0578392209848 162.36134496639596 L 1060.807731736705 161.16913218651248 L 1061.9559865311821 160.94568946660442 L 1063.3075781877335 161.25256033185659 L 1064.8074860583508 162.2919099067184 L 1066.5573785740708 164.3627773373954 L 1068.8072403799968 168.1775806773881 L 1071.8070561212312 174.66762135529672 L 1078.8066261841113 190.38375700331008 L 1081.0564879900373 193.9984463740121 L 1083.0563651508603 196.16634221255876 L 1084.8062576665802 197.15254508485478 L 1086.0561808920947 197.31358738532768 L 1087.306104117609 197.02187846523339 L 1088.8060119882264 196.09241563784798 L 1090.5559045039465 194.2636729992463 L 1092.8057663098723 190.89286023202246 L 1095.555597406004 185.60980113065634 L 1105.055013919913 166.27131939924527 L 1107.3048757258389 163.3299557481729 L 1109.3047528866618 161.66182347096557 L 1111.0546454023818 160.99817065983444 L 1112.554553272999 161.03539806939287 L 1114.0544611436162 161.62381387154227 L 1115.8043536593364 162.9726330756312 L 1118.0542154652621 165.6493213742712 L 1120.8040465613938 170.08308873292592 L 1124.8038008830397 177.89407515522635 L 1130.3034630753027 188.57153321087344 L 1133.0532941714343 192.7831357048743 L 1135.5531406224632 195.5223554692714 L 1137.5530177832861 196.83667460115743 L 1139.302910299006 197.3028630174704 L 1140.8028181696234 197.1875091763378 L 1142.3027260402405 196.60581349821493 L 1144.0526185559606 195.36619459312783 L 1146.3024803618864 192.9674471684469 L 1149.052311458018 189.0188309323109 L 1152.8020811345611 182.44704038348547 L 1160.3016204876474 169.05337457455482 L 1163.3014362288818 164.98634304881222 L 1165.8012826799104 162.588848521396 L 1167.8011598407334 161.41882419986837 L 1169.5510523564535 160.9729043564463 L 1171.3009448721737 161.07288874141506 L 1173.0508373878938 161.70805492814532 L 1175.0507145487168 163.05492428477612 L 1177.5505609997454 165.57632809479114 L 1180.5503767409798 169.6058292446177 L 1184.8001157077285 176.50805640474266 L 1192.2996550608145 188.81413505073192 L 1195.549455447152 192.95090524900408 L 1198.2992865432836 195.47229575643576 L 1200.5491483492094 196.7591168240154 L 1202.5490255100324 197.27799720467414 L 1204.2989180257525 197.2420426798649 L 1206.2987951865755 196.6505100452444 L 1208.2986723473985 195.49934027257729 L 1210.798518798427 193.3438384187063 L 1214.0483191847645 189.54450678378234 L 1218.2980581515133 183.4092323418764 L 1228.0474593105253 168.8441605387528 L 1231.5472443419653 164.9167762197401 L 1234.5470600831998 162.53993979587773 L 1237.0469065342286 161.3588665678369 L 1239.0467836950515 160.96654072452202 L 1241.0466608558745 161.0699379359228 L 1243.0465380166975 161.65892438303877 L 1245.2963998226232 162.87299295315245 L 1248.0462309187549 165.07708134476516 L 1251.5460159501952 168.8376664071918 L 1256.0457395620467 174.7522399428116 L 1267.045063946573 189.64938822975844 L 1270.7948336231161 193.42965030196083 L 1273.7946493643506 195.60378936872888 L 1276.2944958153792 196.75946285188175 L 1278.544357621305 197.2612909472026 L 1280.794219427231 197.24638520369777 L 1283.0440812331567 196.72336783851338 L 1285.5439276841853 195.5742154305155 L 1288.2937587803171 193.67770710560836 L 1291.7935438117572 190.4459502721966 L 1296.293267423609 185.29876200626168 L 1311.542330774884 166.97558772540881 L 1315.292100451427 163.9133586034268 L 1318.2919161926613 162.19934735854056 L 1321.041747288793 161.25931591298644 L 1323.5415937398216 160.94818064234866 L 1326.0414401908504 161.15516344950825 L 1328.541286641879 161.8657731926097 L 1331.2911177380108 163.19513757787388 L 1334.5409181243479 165.43184370681092 L 1338.540672445994 169.00542323877968 L 1344.040334638257 174.92653541989608 L 1357.0395361836065 189.3091393736152 L 1361.5392597954583 193.0888339599349 L 1365.0390448268984 195.26858656295752 L 1368.2888452132354 196.6116996413506 L 1371.0386763093672 197.2048390588159 L 1373.7885074054986 197.29091924398844 L 1376.5383385016305 196.87641872753872 L 1379.5381542428647 195.87718793762664 L 1382.787954629202 194.19959918295052 L 1386.537724305745 191.59158295723995 L 1391.2874325626997 187.47271578145853 L 1398.5369872706829 180.16787069604229 L 1408.5363730747977 170.2337391964719 L 1413.536065976855 166.20026406827884 L 1417.535820298501 163.70463156095548 L 1421.035605329941 162.14697703003873 L 1424.2854057162785 161.26592534955452 L 1427.285221457513 160.95140660409265 L 1430.2850371987474 161.1156005817951 L 1433.534837585085 161.81848753928963 L 1437.0346226165248 163.1499469268593 L 1440.7843922930679 165.1724282258952 L 1445.2841159049194 168.2843250589537 L 1451.0337627422857 173.0560121189706 L 1471.532503640721 190.7968741320653 L 1476.2822118976753 193.71874264550874 L 1480.2819662193212 195.55273350608303 L 1484.0317358958646 196.6970922398254 L 1487.5315209273047 197.23931342329982 L 1491.031305958745 197.26817289111483 L 1491.2562921393376 197.2526083875327" stroke-linecap="round" stroke-linejoin="round" stroke-miterlimit="10" stroke-width="2.5" stroke-opacity="0.8999999761581421" stroke-dasharray=""/></g></g></svg>